<?xml version="1.0" encoding="UTF-8"?>
<svg version="1.1" xmlns="http://www.w3.org/2000/svg" width="647" height="288">
<path d="M0 0 C18.48 0 36.96 0 56 0 C56 5.94 56 11.88 56 18 C61.61 18 67.22 18 73 18 C73 12.06 73 6.12 73 0 C85.54 0 98.08 0 111 0 C111 5.94 111 11.88 111 18 C116.94 18 122.88 18 129 18 C129 39.45 129 60.9 129 83 C122.73 83 116.46 83 110 83 C110 61.88 110 40.76 110 19 C98.12 19 86.24 19 74 19 C74 40.12 74 61.24 74 83 C67.73 83 61.46 83 55 83 C55 61.88 55 40.76 55 19 C43.12 19 31.24 19 19 19 C19 40.12 19 61.24 19 83 C12.73 83 6.46 83 0 83 C0 55.61 0 28.22 0 0 Z " fill="#FFFFFF" transform="translate(412,71)"/>
<path d="M0 0 C24.42 0 48.84 0 74 0 C74 6.27 74 12.54 74 19 C79.94 19 85.88 19 92 19 C92 24.94 92 30.88 92 37 C86.06 37 80.12 37 74 37 C74 43.27 74 49.54 74 56 C55.85 56 37.7 56 19 56 C19 74.15 19 92.3 19 111 C12.73 111 6.46 111 0 111 C0 74.37 0 37.74 0 0 Z M19 19 C19 24.94 19 30.88 19 37 C36.82 37 54.64 37 73 37 C73 31.06 73 25.12 73 19 C55.18 19 37.36 19 19 19 Z " fill="#FFFFFF" transform="translate(46,43)"/>
<path d="M0 0 C6.6 0 13.2 0 20 0 C20 15.18 20 30.36 20 46 C31.55 46 43.1 46 55 46 C55 30.82 55 15.64 55 0 C61.6 0 68.2 0 75 0 C75 27.39 75 54.78 75 83 C68.73 83 62.46 83 56 83 C56 89.27 56 95.54 56 102 C37.52 102 19.04 102 0 102 C0 95.73 0 89.46 0 83 C18.15 83 36.3 83 55 83 C55 77.06 55 71.12 55 65 C43.12 65 31.24 65 19 65 C19 59.06 19 53.12 19 47 C12.73 47 6.46 47 0 47 C0 31.49 0 15.98 0 0 Z " fill="#FFFFFF" transform="translate(146,71)"/>
<path d="M0 0 C6.27 0 12.54 0 19 0 C19 21.12 19 42.24 19 64 C30.88 64 42.76 64 55 64 C55 42.88 55 21.76 55 0 C61.27 0 67.54 0 74 0 C74 27.39 74 54.78 74 83 C55.52 83 37.04 83 18 83 C18 77.06 18 71.12 18 65 C12.06 65 6.12 65 0 65 C0 43.55 0 22.1 0 0 Z " fill="#FFFFFF" transform="translate(330,71)"/>
<path d="M0 0 C6.27 0 12.54 0 19 0 C19 36.63 19 73.26 19 111 C12.73 111 6.46 111 0 111 C0 95.82 0 80.64 0 65 C-5.94 65 -11.88 65 -18 65 C-18 59.06 -18 53.12 -18 47 C-23.94 47 -29.88 47 -36 47 C-36 40.73 -36 34.46 -36 28 C-29.73 28 -23.46 28 -17 28 C-17 33.94 -17 39.88 -17 46 C-11.39 46 -5.78 46 0 46 C0 30.82 0 15.64 0 0 Z " fill="#FFFFFF" transform="translate(302,43)"/>
<path d="M0 0 C6.27 0 12.54 0 19 0 C19 2.97 19 5.94 19 9 C24.94 9 30.88 9 37 9 C37 15.27 37 21.54 37 28 C31.06 28 25.12 28 19 28 C19 55.39 19 82.78 19 111 C12.73 111 6.46 111 0 111 C0 74.37 0 37.74 0 0 Z " fill="#FFFFFF" transform="translate(229,43)"/>
</svg>
