<?xml version="1.0" encoding="UTF-8"?>
<svg version="1.1" xmlns="http://www.w3.org/2000/svg" width="618" height="246">
<path d="M0 0 C18.48 0 36.96 0 56 0 C56 5.94 56 11.88 56 18 C61.61 18 67.22 18 73 18 C73 12.06 73 6.12 73 0 C85.54 0 98.08 0 111 0 C111 5.94 111 11.88 111 18 C116.94 18 122.88 18 129 18 C129 39.45 129 60.9 129 83 C122.73 83 116.46 83 110 83 C110 61.88 110 40.76 110 19 C98.12 19 86.24 19 74 19 C74 40.12 74 61.24 74 83 C67.73 83 61.46 83 55 83 C55 61.88 55 40.76 55 19 C43.12 19 31.24 19 19 19 C19 40.12 19 61.24 19 83 C12.73 83 6.46 83 0 83 C0 55.61 0 28.22 0 0 Z " fill="#FFFFFF" transform="translate(389,38)"/>
<path d="M0 0 C6.27 0 12.54 0 19 0 C19 6.27 19 12.54 19 19 C24.61 19 30.22 19 36 19 C36 12.73 36 6.46 36 0 C45.57 0 55.14 0 65 0 C65 6.27 65 12.54 65 19 C70.94 19 76.88 19 83 19 C83 31.21 83 43.42 83 56 C77.06 56 71.12 56 65 56 C65 61.94 65 67.88 65 74 C49.82 74 34.64 74 19 74 C19 86.21 19 98.42 19 111 C12.73 111 6.46 111 0 111 C0 74.37 0 37.74 0 0 Z M37 19 C37 25.27 37 31.54 37 38 C31.06 38 25.12 38 19 38 C19 43.61 19 49.22 19 55 C33.85 55 48.7 55 64 55 C64 43.12 64 31.24 64 19 C55.09 19 46.18 19 37 19 Z " fill="#FFFFFF" transform="translate(41,38)"/>
<path d="M0 0 C6.27 0 12.54 0 19 0 C19 15.18 19 30.36 19 46 C30.88 46 42.76 46 55 46 C55 30.82 55 15.64 55 0 C61.27 0 67.54 0 74 0 C74 27.39 74 54.78 74 83 C68.06 83 62.12 83 56 83 C56 89.27 56 95.54 56 102 C37.52 102 19.04 102 0 102 C0 95.73 0 89.46 0 83 C18.15 83 36.3 83 55 83 C55 77.06 55 71.12 55 65 C42.79 65 30.58 65 18 65 C18 59.06 18 53.12 18 47 C12.06 47 6.12 47 0 47 C0 31.49 0 15.98 0 0 Z " fill="#FFFFFF" transform="translate(132,38)"/>
<path d="M0 0 C21.45 0 42.9 0 65 0 C65 5.94 65 11.88 65 18 C70.94 18 76.88 18 83 18 C83 39.45 83 60.9 83 83 C76.73 83 70.46 83 64 83 C64 61.88 64 40.76 64 19 C49.15 19 34.3 19 19 19 C19 40.12 19 61.24 19 83 C12.73 83 6.46 83 0 83 C0 55.61 0 28.22 0 0 Z " fill="#FFFFFF" transform="translate(215,38)"/>
<path d="M0 0 C6.6 0 13.2 0 20 0 C20 21.12 20 42.24 20 64 C31.55 64 43.1 64 55 64 C55 42.88 55 21.76 55 0 C61.6 0 68.2 0 75 0 C75 27.39 75 54.78 75 83 C56.52 83 38.04 83 19 83 C19 77.06 19 71.12 19 65 C12.73 65 6.46 65 0 65 C0 43.55 0 22.1 0 0 Z " fill="#FFFFFF" transform="translate(306,38)"/>
</svg>
