<?xml version="1.0" encoding="UTF-8"?>
<svg version="1.1" xmlns="http://www.w3.org/2000/svg" width="597" height="253">
<path d="M0 0 C16.5 0 33 0 50 0 C50 5.28 50 10.56 50 16 C55.28 16 60.56 16 66 16 C66 10.72 66 5.44 66 0 C76.89 0 87.78 0 99 0 C99 5.28 99 10.56 99 16 C104.61 16 110.22 16 116 16 C116 35.14 116 54.28 116 74 C110.39 74 104.78 74 99 74 C99 55.19 99 36.38 99 17 C88.11 17 77.22 17 66 17 C66 35.81 66 54.62 66 74 C60.39 74 54.78 74 49 74 C49 55.19 49 36.38 49 17 C38.44 17 27.88 17 17 17 C17 35.81 17 54.62 17 74 C11.39 74 5.78 74 0 74 C0 49.58 0 25.16 0 0 Z " fill="#FFFFFF" transform="translate(374,63)"/>
<path d="M0 0 C5.94 0 11.88 0 18 0 C18 13.53 18 27.06 18 41 C28.56 41 39.12 41 50 41 C50 27.47 50 13.94 50 0 C55.61 0 61.22 0 67 0 C67 24.42 67 48.84 67 74 C61.72 74 56.44 74 51 74 C51 79.61 51 85.22 51 91 C34.17 91 17.34 91 0 91 C0 85.39 0 79.78 0 74 C16.5 74 33 74 50 74 C50 68.72 50 63.44 50 58 C39.11 58 28.22 58 17 58 C17 52.72 17 47.44 17 42 C11.39 42 5.78 42 0 42 C0 28.14 0 14.28 0 0 Z " fill="#FFFFFF" transform="translate(134,63)"/>
<path d="M0 0 C21.78 0 43.56 0 66 0 C66 5.61 66 11.22 66 17 C49.83 17 33.66 17 17 17 C17 22.28 17 27.56 17 33 C33.17 33 49.34 33 66 33 C66 38.61 66 44.22 66 50 C49.83 50 33.66 50 17 50 C17 66.17 17 82.34 17 99 C11.39 99 5.78 99 0 99 C0 66.33 0 33.66 0 0 Z " fill="#FFFFFF" transform="translate(44,38)"/>
<path d="M0 0 C5.94 0 11.88 0 18 0 C18 18.81 18 37.62 18 57 C28.56 57 39.12 57 50 57 C50 38.19 50 19.38 50 0 C55.61 0 61.22 0 67 0 C67 24.42 67 48.84 67 74 C50.5 74 34 74 17 74 C17 68.72 17 63.44 17 58 C11.39 58 5.78 58 0 58 C0 38.86 0 19.72 0 0 Z " fill="#FFFFFF" transform="translate(299,63)"/>
<path d="M0 0 C5.61 0 11.22 0 17 0 C17 32.67 17 65.34 17 99 C11.39 99 5.78 99 0 99 C0 85.47 0 71.94 0 58 C-5.61 58 -11.22 58 -17 58 C-17 52.72 -17 47.44 -17 42 C-22.28 42 -27.56 42 -33 42 C-33 36.39 -33 30.78 -33 25 C-27.39 25 -21.78 25 -16 25 C-16 30.28 -16 35.56 -16 41 C-10.72 41 -5.44 41 0 41 C0 27.47 0 13.94 0 0 Z " fill="#FFFFFF" transform="translate(275,38)"/>
<path d="M0 0 C5.61 0 11.22 0 17 0 C17 2.64 17 5.28 17 8 C22.28 8 27.56 8 33 8 C33 13.61 33 19.22 33 25 C27.72 25 22.44 25 17 25 C17 49.42 17 73.84 17 99 C11.39 99 5.78 99 0 99 C0 66.33 0 33.66 0 0 Z " fill="#FFFFFF" transform="translate(209,38)"/>
<path d="M0 0 C5.61 0 11.22 0 17 0 C17 5.28 17 10.56 17 16 C11.39 16 5.78 16 0 16 C0 10.72 0 5.44 0 0 Z " fill="#FFFFFF" transform="translate(110,55)"/>
</svg>
